<?xml version="1.0" encoding="UTF-8"?><svg id="Layer_1" xmlns="http://www.w3.org/2000/svg" viewBox="0 0 500 500"><rect x="18.39" y="11.3" width="464.2" height="464.2" rx="121.15" ry="121.15" style="fill:#8fd7f1;"/><path d="M359.23,93.21l11.8,285.33h-6.67l-48.61-285.33h-39.5l-16.61,285.33h-6.67l-25.2-285.33h-48.55l27.57,258.24c-1.68,3.62-3.73,6.9-6.15,9.81-7.91,9.51-19.03,14.27-33.35,14.27-12.6,0-22.3-3.46-29.09-10.38-6.8-6.91-10.19-17.29-10.19-31.13v-106h-46.7v109.7c0,15.07,2.96,28.42,8.89,40.03,5.93,11.62,14.27,20.7,25.02,27.24,10.75,6.55,23.28,9.82,37.62,9.82,16.55,0,28.91-2.96,37.06-8.89,8.15-5.93,13.71-11.98,16.68-18.16h4.1l2.66,24.88h84.5l5.47-121.81,22.91,121.81h84.5l.1-319.43h-51.55Z" style="fill:#052635;"/></svg>